<svg width="100%" height="100%" viewBox="0 0 200 200" version="1.1" xmlns="http://www.w3.org/2000/svg" xmlns:xlink="http://www.w3.org/1999/xlink" xml:space="preserve" style="fill-rule:evenodd;clip-rule:evenodd;stroke-linejoin:round;stroke-miterlimit:2;"><path d="M158.333,54.167c0,-18.41 -14.924,-33.334 -33.333,-33.334l-50,0c-18.409,0 -33.333,14.924 -33.333,33.334l-0,50c-0,18.409 14.924,33.333 33.333,33.333l50,0c18.409,-0 33.333,-14.924 33.333,-33.333l0,-50Z" style="fill:#e5484d;"/><path d="M150,154.167c0,-4.421 -1.756,-8.66 -4.882,-11.785c-3.125,-3.126 -7.364,-4.882 -11.785,-4.882c-18.496,0 -48.17,0 -66.666,0c-4.421,-0 -8.66,1.756 -11.785,4.882c-3.126,3.125 -4.882,7.364 -4.882,11.785c-0,18.514 -0,45.833 -0,45.833l100,0l0,-45.833Z" style="fill:#bd8c61;"/></svg>